<?xml version="1.0" encoding="UTF-8" standalone="no"?>
<!DOCTYPE svg PUBLIC "-//W3C//DTD SVG 1.1//EN" "http://www.w3.org/Graphics/SVG/1.1/DTD/svg11.dtd">
<svg width="100%" height="100%" viewBox="0 0 3508 2481" version="1.1" xmlns="http://www.w3.org/2000/svg" xmlns:xlink="http://www.w3.org/1999/xlink" xml:space="preserve" xmlns:serif="http://www.serif.com/" style="fill-rule:evenodd;clip-rule:evenodd;stroke-linejoin:round;stroke-miterlimit:2;">
    <g id="ChatGPT-Image-10-lut-2026--20_59_43.png" serif:id="ChatGPT Image 10 lut 2026, 20_59_43.png" transform="matrix(15.314935,0,0,15.314935,-5745.37466,-5597.013044)">
        <path d="M391.045,463.5C391.041,457.419 391.002,396.784 391.07,387.49C391.091,384.678 391.703,384.439 394.5,384.448C423.954,384.542 423.942,384.365 426.502,384.402C436.373,384.546 524.574,384.338 577.5,384.447C586.847,384.467 588.067,384.051 588.261,386.521C588.417,388.507 588.347,461.021 588.341,467.499C588.325,483.936 588.349,483.933 588.175,484.367C587.637,485.711 584.476,485.343 581.5,485.34C572.78,485.33 515.088,485.269 472.499,485.325C447.166,485.335 421.832,485.345 396.499,485.355C392.584,485.363 391.104,485.921 391.073,482.508C390.928,466.039 390.992,466.048 391.045,463.5Z" style="fill:rgb(197,197,197);"/>
        <path d="M579.5,388.935C582.496,389.047 583.662,388.495 583.755,391.49C583.818,393.518 583.767,465.099 583.762,471.5C583.757,478.954 584.065,480.349 582.615,480.788C581.923,480.997 397.656,480.879 397.449,480.861C397.265,480.846 395.881,480.727 395.599,479.477C395.495,479.02 395.569,390.794 395.614,390.519C395.934,388.535 398.483,388.911 402.501,388.913C461.501,388.92 520.5,388.927 579.5,388.935Z" style="fill:rgb(30,35,42);"/>
        <path d="M565.073,410.499C565.07,411.267 565.212,414.946 564.62,415.594C563.82,416.469 563.679,416.214 562.491,416.246C560.996,416.286 519.246,416.187 518.47,416.37C517.17,416.675 517.071,418.242 517.058,418.442C516.896,420.994 516.919,424.93 516.923,425.494C516.936,427.713 517.29,428.012 519.503,428.103C522.811,428.24 549.466,427.761 553.516,428.401C553.963,428.472 560.685,429.046 564.142,434.718C565.967,437.712 566.018,441.481 565.909,452.506C565.893,454.143 566.742,466.656 553.484,468.375C549.463,468.897 549.453,468.767 513.5,468.804C510.858,468.807 481.183,468.837 480.478,468.807C477.689,468.69 478.198,466.883 478.204,459.501C478.208,454.984 477.712,452.796 480.511,452.713C481.31,452.689 481.301,452.734 490.504,452.681C493.397,452.664 493.112,453.808 495.527,454.224C496.005,454.306 547.331,454.391 548.461,454.239C550.495,453.965 550.377,452.795 550.306,445.502C550.278,442.676 550.322,441.858 547.487,441.795C542.826,441.692 515.877,441.984 513.485,441.601C507.401,440.627 501.457,438.981 501.305,427.502C501.279,425.579 501.003,404.755 501.327,403.454C501.68,402.036 501.989,402.134 503.462,402.058C505.605,401.948 540.05,402.173 549.499,401.969C555.092,401.849 555.081,402.164 562.496,401.966C562.72,401.96 564.656,401.908 564.926,403.369C565.086,404.24 565.074,409.929 565.073,410.499Z" style="fill:rgb(50,173,223);"/>
        <path d="M416.106,461.5C416.111,446.5 416.117,431.5 416.122,416.5C416.119,403.253 415.89,402.67 417.376,402.174C418.659,401.746 428.535,401.938 429.506,401.956C432.352,402.012 432.917,402.709 436.885,409.265C437.539,410.346 437.694,410.242 445.643,422.401C449.217,427.867 449.339,427.771 452.877,433.248C454.217,435.324 455.301,434.852 455.638,434.744C456.375,434.508 459.532,428.927 461.371,426.407C461.922,425.651 468.93,414.968 469.343,414.392C470.562,412.693 475.528,405.063 475.787,404.703C477.761,401.956 478.109,402.086 481.502,402.081C487.947,402.069 487.942,401.979 488.502,401.991C492.077,402.062 493.341,401.858 493.473,404.502C493.628,407.618 493.586,407.615 493.59,443.5C493.59,447.05 494.042,448.391 490.5,448.375C479.781,448.327 479.709,448.385 479.174,447.98C478.062,447.138 478.318,446.876 478.297,437.501C478.28,429.507 479.032,428.5 477.533,428.662C476.487,428.775 477.117,429.486 473.156,435.262C472.213,436.637 462.409,451.537 461.15,453.245C459.649,455.282 459.182,455.153 452.502,455.137C448.845,455.128 448.845,453.842 448.133,452.741C447.602,451.918 447.514,452.004 446.979,451.183C446.096,449.825 439.362,439.476 435.793,434.306C434.866,432.964 432.497,428.752 432.371,428.716C432.134,428.648 431.892,428.84 431.667,428.942C430.754,429.356 430.855,429.539 430.965,430.543C431.269,433.323 431.448,434.956 431.286,465.498C431.271,468.226 430.786,468.776 428.506,468.806C417.485,468.95 417.372,468.951 416.67,468.315C415.953,467.665 416.107,465.526 416.106,461.5Z" style="fill:rgb(199,199,200);"/>
        <g transform="matrix(0.352933,0,0,0.352933,317.454768,421.874765)">
            <path d="M259.047,215.498C259.061,211.83 259.076,208.161 259.09,204.492C259.126,198.612 258.977,197.448 260.579,196.891C260.813,196.81 264.187,196.811 264.5,196.811C268.68,196.813 267.078,199.487 267.924,200.157C268.088,200.287 268.342,200.109 268.551,200.115C268.809,200.124 269.074,200.277 269.32,200.201C269.492,200.148 269.527,199.904 269.653,199.775C270.198,199.223 273.128,196.25 278.535,195.891C287.511,195.294 289.848,200.474 290.404,200.668C292.233,201.304 292.559,199.456 295.586,197.65C299.104,195.552 311.775,193.607 315.018,202.689C315.767,204.787 316.417,206.607 315.947,230.519C315.914,232.226 316.064,232.603 314.432,233.094C314.241,233.152 309.898,233.131 309.504,233.129C305.514,233.11 306.129,231.54 306.127,228.501C306.119,213.885 306.156,213.89 306.124,210.506C306.014,199.185 294.887,203.575 292.954,207.703C291.864,210.031 292.621,221.862 292.372,230.495C292.318,232.376 292.297,232.725 290.458,233.11C290.269,233.149 284.716,233.14 284.535,233.116C284.389,233.097 283.247,232.948 282.89,232.284C282.038,230.699 283.295,212.807 282.199,207.56C280.799,200.859 272.868,203.629 270.641,205.658C268.547,207.565 268.772,207.976 268.782,224.499C268.786,230.778 269.117,232.445 267.4,233.075C267.187,233.153 261.139,233.22 260.343,232.997C258.589,232.503 259.017,230.784 259.036,226.496C259.04,222.83 259.043,219.164 259.047,215.498Z" style="fill:rgb(199,200,204);"/>
        </g>
        <g transform="matrix(0.352933,0,0,0.352933,317.454768,421.874765)">
            <path d="M694.75,229.5C694.671,232.053 695.038,232.918 692.478,233.134C687.712,233.536 687.029,232.702 686.735,232.343C686.027,231.479 686.473,223.935 686.31,210.501C686.266,206.845 686.176,202.129 678.462,203.241C675.25,203.703 672.853,205.545 672.365,206.405C671.59,207.773 671.466,207.855 671.564,224.499C671.606,231.459 671.613,232.009 670.683,232.776C670.549,232.887 670.586,233.218 665.519,233.093C663.495,233.043 663.148,232.109 663.09,230.527C662.905,225.486 663.122,211.229 663.119,200.497C663.118,197.858 662.881,197.018 665.517,196.823C668.908,196.572 669.423,197.1 669.656,197.339C669.787,197.473 669.956,197.592 670.017,197.769C670.216,198.344 670.223,198.974 670.421,199.549C670.868,200.843 672.06,200.097 672.184,200.02C672.191,200.016 674.323,197.203 679.466,196.31C687.279,194.953 690.546,198.119 691.237,198.789C691.915,199.446 693.104,201.784 695.117,200.046C695.789,199.466 697.75,197.31 702.477,196.38C706.136,195.659 711.031,196.311 713.289,197.83C718.67,201.45 718.153,207.436 718.131,219.499C718.129,220.455 718.109,231.35 718.084,231.446C717.648,233.155 717.262,233.033 715.486,233.12C710.566,233.361 709.923,232.751 709.741,231.463C709.429,229.258 710.053,210.159 709.423,207.519C708.88,205.242 707.871,202.612 702.465,203.205C699.296,203.553 695.88,205.427 695.166,207.359C694.936,207.984 694.711,207.991 694.75,229.5Z" style="fill:rgb(48,174,224);"/>
        </g>
        <g transform="matrix(0.352933,0,0,0.352933,317.454768,421.874765)">
            <path d="M459.789,222.501C459.766,231.377 460.036,232.417 458.698,232.902C458.233,233.071 457.793,233.23 452.512,233.115C450.297,233.067 450.01,232.715 449.913,230.49C449.871,229.535 449.871,181.763 449.914,181.536C450.263,179.699 450.644,179.703 452.504,179.682C452.978,179.676 458.054,179.619 458.431,179.769C460.03,180.406 459.794,180.772 459.801,182.498C459.809,184.498 459.897,205.192 459.811,207.499C459.729,209.668 459.484,209.71 459.849,210.319C460.296,211.067 461.376,210.55 461.496,210.493C461.605,210.441 463.864,207.134 467.703,202.673C471.316,198.476 471.72,196.893 474.514,196.789C475.072,196.768 475.065,196.832 481.484,196.67C482.69,196.639 483.197,196.318 483.24,197.523C483.268,198.341 483.048,198.288 481.274,200.312C480.146,201.599 479.698,202.49 475.352,207.37C470.88,212.392 470.867,212.908 470.852,213.517C470.831,214.363 470.824,214.626 476.82,222.252C483.644,230.931 483.983,230.677 484.373,231.552C484.723,232.34 484.513,232.399 483.833,232.928C483.375,233.285 483.323,233.108 479.496,233.12C475.607,233.132 473.855,233.619 471.968,231.134C467.61,225.396 467.595,225.431 463.199,219.733C462.083,218.286 461.699,217.016 460.349,217.164C459.673,217.238 459.676,218.403 459.676,218.525C459.677,218.843 459.684,218.819 459.789,222.501Z" style="fill:rgb(198,200,203);"/>
        </g>
        <g transform="matrix(0.352933,0,0,0.352933,317.454768,421.874765)">
            <path d="M421.466,196.116C421.492,196.114 426.6,195.552 430.545,196.268C442.099,198.363 441.443,207.246 441.473,214.5C441.482,216.613 441.336,231.303 441.309,231.469C441.07,232.945 439.606,233.291 435.508,233.125C433.728,233.053 433.489,233.02 432.898,231.323C432.79,231.014 432.907,230.583 432.657,230.372C432.336,230.102 431.849,230.045 431.432,230.088C430.869,230.146 429.459,231.892 426.605,232.829C413.463,237.144 405.757,228.542 408.416,219.474C410.788,211.388 420.165,211.71 426.501,211.534C428.843,211.469 431.802,212.051 431.492,208.5C431.001,202.855 425.551,203.113 424.502,203.103C414.167,203.007 412.305,206.067 411.659,202.469C411.421,201.143 410.769,199.063 412.123,198.008C412.979,197.34 417.643,196.468 421.466,196.116ZM417.855,223.416C418.038,223.799 418.124,224.223 418.307,224.606C420.264,228.706 431.54,227.407 431.687,220.501C431.78,216.127 429.857,217.089 425.491,217.154C417.549,217.271 417.738,220.493 417.855,223.416Z" style="fill:rgb(197,199,202);"/>
        </g>
        <g transform="matrix(0.352933,0,0,0.352933,317.454768,421.874765)">
            <path d="M335.465,196.122C336.517,196.037 336.505,195.964 340.509,195.899C341.643,195.88 350.394,195.739 353.541,201.475C355.021,204.172 355.619,204.225 355.543,217.5C355.463,231.774 355.795,232.195 354.653,232.732C353.183,233.424 353.131,233.12 351.494,233.14C351.393,233.141 347.689,233.628 347.197,231.619C347.119,231.298 347.207,230.949 347.113,230.633C346.99,230.22 345.782,229.744 345.615,229.766C345.477,229.784 345.476,230.013 345.371,230.103C342.496,232.54 339.092,233.338 338.495,233.478C333.656,234.613 330.07,233.355 329.581,233.216C320.8,230.717 320.935,220.799 323.8,216.694C328.695,209.683 341.181,212.193 344.455,211.352C346.63,210.792 346.019,205.811 343.621,204.327C341.381,202.94 339.768,203.068 336.488,203.128C330.041,203.246 326.664,205.212 325.97,203.318C325.893,203.107 325.471,199.58 325.475,199.499C325.485,199.332 325.546,198.276 326.623,197.747C327.175,197.476 330.923,196.603 335.465,196.122ZM331.871,222.496C332.109,223.609 331.703,227.403 338.532,226.874C342.261,226.585 345.456,224.213 345.752,221.522C346.165,217.76 344.935,217.367 344.598,217.259C344.146,217.115 337.107,216.768 334.705,217.948C331.76,219.394 331.981,221.865 331.871,222.496Z" style="fill:rgb(198,200,203);"/>
        </g>
        <g transform="matrix(0.352933,0,0,0.352933,317.454768,421.874765)">
            <path d="M610.501,218.136C602.829,218.093 598.899,218.108 598.409,218.258C596.428,218.862 597.336,223.406 599.567,225.428C603.472,228.969 617.033,226.047 617.545,226.106C617.919,226.149 619.659,226.348 619.29,230.483C619.069,232.952 614.634,232.946 611.491,233.442C610.308,233.628 602.64,234.837 596.561,232.358C596.244,232.228 594.582,231.551 592.976,230.01C589.129,226.319 588.934,220.38 588.905,219.477C588.441,205.312 590.101,203.645 591.439,201.459C594.267,196.841 602.459,195.509 608.542,196.168C617.267,197.112 619.271,202.393 620.233,205.58C621.136,208.57 621.179,216.611 620.405,217.418C619.587,218.272 618.312,218.131 610.501,218.136ZM609.493,212.149C609.986,212.087 609.975,212.196 610.476,212.134C610.575,212.121 611.299,212.031 611.694,211.874C613.127,211.304 613.001,208.065 611.648,205.418C609.566,201.346 603.047,202.603 601.377,203.106C596.434,204.596 597.009,210.884 597.545,211.465C598.284,212.265 599.606,212.133 609.493,212.149Z" style="fill:rgb(47,174,225);"/>
        </g>
        <g transform="matrix(0.352933,0,0,0.352933,317.454768,421.874765)">
            <path d="M637.511,233.832C630.592,233.804 623.828,232.352 624.818,220.53C625.814,208.627 645.017,212.913 647.252,211.19C648.19,210.467 648.882,204.113 643.584,203.084C638.841,202.163 629.689,203.94 629.461,203.915C627.739,203.721 628.056,203.15 627.704,201.463C626.884,197.53 628.463,197.669 632.42,197.007C658.163,192.701 656.188,203.941 656.178,217.499C656.168,230.493 656.426,231.828 655.613,232.627C655.033,233.198 650.184,233.363 649.416,232.601C649.083,232.269 649.004,231.756 648.807,231.33C648.107,229.816 647.587,230.026 646.243,231.022C643.265,233.226 638.241,233.755 637.511,233.832ZM637.539,227.162C639.422,227.216 643.204,227.72 646.632,224.652C648.241,223.211 647.992,221.534 648.038,220.499C648.194,216.98 647.012,217.087 643.498,217.096C641.841,217.1 633.061,216.262 633.136,222.507C633.189,226.964 637.321,227.105 637.539,227.162Z" style="fill:rgb(49,172,223);"/>
        </g>
        <g transform="matrix(0.352933,0,0,0.352933,317.454768,421.874765)">
            <path d="M374.865,188.5C374.855,192.244 374.83,195.185 374.916,195.408C374.974,195.559 375.335,196.493 376.457,196.718C377.557,196.94 382.798,196.407 383.718,197.228C384.025,197.502 384.614,197.891 384.402,201.492C384.265,203.83 381.966,203.558 381.502,203.566C379.146,203.605 375.824,203.332 375.316,204.371C374.574,205.89 375.066,212.864 374.933,218.503C374.814,223.572 374.918,226.504 381.489,226.277C384.217,226.184 384.401,226.75 384.811,229.446C384.915,230.127 385.149,230.803 385.108,231.49C385.036,232.715 383.602,233.152 383.417,233.209C380.929,233.967 371.15,234.906 367.525,230.48C364.45,226.726 365.276,221.874 365.202,206.502C365.2,206.069 365.283,204.852 364.781,204.279C363.387,202.688 359.847,204.763 359.564,201.494C359.211,197.431 360.309,197.076 360.664,196.961C361.962,196.542 365.508,197.694 365.801,194.54C365.94,193.052 365.945,186.093 367.444,185.405C368.259,185.031 373.541,184.722 374.375,185.614C374.645,185.903 374.762,186.349 374.78,186.419C374.822,186.58 374.786,186.573 374.865,188.5Z" style="fill:rgb(199,201,205);"/>
        </g>
        <g transform="matrix(0.352933,0,0,0.352933,317.454768,421.874765)">
            <path d="M535.959,223.518C535.775,226.483 535.865,228.999 531.635,231.73C526.205,235.237 510.737,233.574 508.733,232.163C507.578,231.349 507.648,227.337 508.536,226.547C509.474,225.713 513.063,227.488 522.487,227.195C522.896,227.182 526.19,227.079 527.254,225.346C528.031,224.081 528.5,220.601 525.56,219.369C521.061,217.484 510.415,217.409 508.184,211.633C506.809,208.073 506.399,199.555 513.427,197.279C522.171,194.447 532.998,197.133 533.486,197.519C534.475,198.303 534.372,202.039 533.778,202.711C532.65,203.987 531.258,202.928 522.494,202.757C520.343,202.715 515.111,202.502 515.759,207.463C516.441,212.691 528.548,210.329 533.601,215.4C536.489,218.296 535.96,221.623 535.959,223.518Z" style="fill:rgb(49,174,225);"/>
        </g>
        <g transform="matrix(0.352933,0,0,0.352933,317.454768,421.874765)">
            <path d="M551.148,189.5C551.181,194.485 550.639,196.516 553.473,196.771C554.925,196.901 558.967,196.536 559.71,197.199C560.356,197.775 560.529,198.204 560.469,200.499C560.385,203.768 558.39,203.142 555.494,203.174C555.25,203.176 552.866,203.202 552.438,203.335C551.313,203.685 551.232,205.278 551.222,205.474C551.083,208.199 551.175,220.22 551.185,221.502C551.239,228.556 555.238,226.896 558.514,226.983C560.783,227.043 560.825,228.67 560.902,229.433C560.97,230.104 561.13,230.78 561.06,231.451C561.041,231.639 560.929,232.717 559.415,233.148C559.074,233.245 554.533,234.026 551.483,233.649C540.964,232.347 543.156,226.731 542.779,207.494C542.748,205.93 543.301,203.502 540.525,203.257C540.195,203.228 539.861,203.253 539.531,203.225C537.339,203.041 537.371,201.608 537.439,199.498C537.591,194.79 541.873,198.225 542.814,195.648C543.271,194.399 543.238,187.228 544.142,186.193C544.667,185.592 544.987,185.38 548.5,185.486C551.393,185.573 551.021,186.599 551.148,189.5Z" style="fill:rgb(50,175,226);"/>
        </g>
        <g transform="matrix(0.352933,0,0,0.352933,317.454768,421.874765)">
            <path d="M401.056,184.499C401.002,226.811 401.1,226.808 401.039,230.487C401.003,232.694 400.687,233.012 398.49,233.119C392.444,233.413 391.925,232.872 391.538,232.469C390.81,231.711 391.229,230.918 391.104,201.503C391.096,199.709 391.094,181.912 391.167,181.444C391.429,179.746 391.793,179.741 393.506,179.728C393.981,179.724 399.042,179.685 399.45,179.809C401.002,180.281 400.934,180.971 401.056,184.499Z" style="fill:rgb(199,201,205);"/>
        </g>
        <g transform="matrix(0.352933,0,0,0.352933,317.454768,421.874765)">
            <path d="M587.063,199.501C586.791,202.386 587.4,203.437 584.522,203.726C583.86,203.793 579.545,203.908 576.256,206.127C573.2,208.188 573.788,208.833 573.774,216.5C573.748,231.641 573.862,231.741 573.352,232.398C572.465,233.538 566.733,233.079 566.633,233.035C565.148,232.387 565.409,231.163 565.366,222.501C565.365,222.408 565.403,199.124 565.505,198.501C565.77,196.88 567.311,196.809 567.522,196.799C571.372,196.622 572.304,196.704 572.722,199.426C572.841,200.202 572.692,200.452 573.473,200.554C575.056,200.761 574.984,199.804 576.599,198.649C579.678,196.449 586.115,195.066 586.851,197.35C586.904,197.515 586.867,197.509 587.063,199.501Z" style="fill:rgb(52,176,226);"/>
        </g>
        <g transform="matrix(0.352933,0,0,0.352933,317.454768,421.874765)">
            <path d="M495.502,223.239C495.618,223.25 501.059,222.692 501.178,228.509C501.319,235.4 491.992,234.702 490.493,231.504C489.932,230.309 489.566,227.553 490.492,225.496C491.635,222.956 495.418,223.245 495.502,223.239Z" style="fill:rgb(194,199,204);"/>
        </g>
    </g>
</svg>
